<svg xmlns="http://www.w3.org/2000/svg" viewBox="0 0 64 64" fill="none">
  <defs>
    <linearGradient id="g" x1="8" y1="6" x2="56" y2="58" gradientUnits="userSpaceOnUse">
      <stop stop-color="#FF7A66"/>
      <stop offset="0.45" stop-color="#FB923C"/>
      <stop offset="1" stop-color="#2DD4BF"/>
    </linearGradient>
  </defs>
  <rect width="64" height="64" rx="18" fill="url(#g)"/>
  <path d="M16.5 28.5 22 12.5c.45-1.25 2.2-1.35 2.8-.15L28.5 24.5c.2.45-.15.95-.65.95h-10.5c-.55 0-.9-.55-.85-1Z" fill="#fff"/>
  <path d="M47.5 28.5 42 12.5c-.45-1.25-2.2-1.35-2.8-.15L35.5 24.5c-.2.45.15.95.65.95h10.5c.55 0 .9-.55.85-1Z" fill="#fff"/>
  <ellipse cx="32" cy="36.5" rx="15.5" ry="14.5" fill="#fff"/>
  <ellipse cx="25.5" cy="34.5" rx="2.4" ry="2.8" fill="#0F172A"/>
  <ellipse cx="38.5" cy="34.5" rx="2.4" ry="2.8" fill="#0F172A"/>
  <path d="M32 38.2c1.5 0 2.5.9 2.5 1.7 0 .7-.8 1.2-2.5 1.2s-2.5-.5-2.5-1.2c0-.8 1-1.7 2.5-1.7Z" fill="#F97068"/>
  <path d="M32 41.1v2.2M32 43.3c-2.2 1.6-4.6 1.4-6.2.2M32 43.3c2.2 1.6 4.6 1.4 6.2.2" stroke="#F97068" stroke-width="1.5" stroke-linecap="round"/>
</svg>
