<svg xmlns="http://www.w3.org/2000/svg" viewBox="0 0 64 64" fill="none" role="img" aria-label="Connecticat">
  <defs>
    <linearGradient id="cc-bg" x1="8" y1="6" x2="56" y2="58" gradientUnits="userSpaceOnUse">
      <stop stop-color="#FF7A66"/>
      <stop offset="0.45" stop-color="#FB923C"/>
      <stop offset="1" stop-color="#2DD4BF"/>
    </linearGradient>
    <linearGradient id="cc-face" x1="20" y1="18" x2="44" y2="50" gradientUnits="userSpaceOnUse">
      <stop stop-color="#FFFFFF"/>
      <stop offset="1" stop-color="#FFF5F3"/>
    </linearGradient>
  </defs>

  <!-- Rounded badge -->
  <rect width="64" height="64" rx="18" fill="url(#cc-bg)"/>

  <!-- Left ear -->
  <path d="M16.5 28.5 22 12.5c.45-1.25 2.2-1.35 2.8-.15L28.5 24.5c.2.45-.15.95-.65.95h-10.5c-.55 0-.9-.55-.85-1Z" fill="url(#cc-face)"/>
  <path d="M23.2 15.2 26.4 24.2h-4.6L23.2 15.2Z" fill="#FF9F8F"/>

  <!-- Right ear -->
  <path d="M47.5 28.5 42 12.5c-.45-1.25-2.2-1.35-2.8-.15L35.5 24.5c-.2.45.15.95.65.95h10.5c.55 0 .9-.55.85-1Z" fill="url(#cc-face)"/>
  <path d="M40.8 15.2 37.6 24.2h4.6L40.8 15.2Z" fill="#FF9F8F"/>

  <!-- Head -->
  <ellipse cx="32" cy="36.5" rx="15.5" ry="14.5" fill="url(#cc-face)"/>

  <!-- Eyes -->
  <ellipse cx="25.5" cy="34.5" rx="2.4" ry="2.8" fill="#0F172A"/>
  <ellipse cx="38.5" cy="34.5" rx="2.4" ry="2.8" fill="#0F172A"/>
  <circle cx="26.3" cy="33.6" r="0.7" fill="#FFFFFF"/>
  <circle cx="39.3" cy="33.6" r="0.7" fill="#FFFFFF"/>

  <!-- Nose -->
  <path d="M32 38.2c1.5 0 2.5.9 2.5 1.7 0 .7-.8 1.2-2.5 1.2s-2.5-.5-2.5-1.2c0-.8 1-1.7 2.5-1.7Z" fill="#F97068"/>

  <!-- Mouth -->
  <path d="M32 41.1v2.2M32 43.3c-2.2 1.6-4.6 1.4-6.2.2M32 43.3c2.2 1.6 4.6 1.4 6.2.2" stroke="#F97068" stroke-width="1.5" stroke-linecap="round" stroke-linejoin="round"/>

  <!-- Whiskers -->
  <path d="M14.5 36.5h7.5M14.8 40h7.2M42 36.5h7.5M42 40h7.2" stroke="#FFFFFF" stroke-opacity=".85" stroke-width="1.4" stroke-linecap="round"/>
</svg>
